<?xml version="1.0" standalone="no"?><!DOCTYPE svg PUBLIC "-//W3C//DTD SVG 1.1//EN" "http://www.w3.org/Graphics/SVG/1.1/DTD/svg11.dtd"><svg t="1748881934950" class="icon" viewBox="0 0 1024 1024" version="1.1" xmlns="http://www.w3.org/2000/svg" p-id="1193" xmlns:xlink="http://www.w3.org/1999/xlink" width="81" height="81"><path d="M794.4 958.3H231.7c-35.6 0-69.6-15.2-93.4-41.7-23.8-26.5-35.2-61.9-31.4-97.3L150.3 414c6.9-64 60.5-112.2 124.9-112.2H751c64.3 0 118 48.2 124.8 112.2l43.4 405.3c3.8 35.4-7.7 70.8-31.4 97.3-23.8 26.5-57.8 41.7-93.4 41.7zM275.1 391.2c-18.5 0-34 13.9-36 32.3l-43.4 405.3c-1.1 10.3 2.1 20.3 9.1 28s16.5 12 26.9 12h562.6c10.4 0 20-4.3 26.9-12 6.9-7.7 10.2-17.7 9.1-28l-43.4-405.3c-2-18.4-17.4-32.3-35.9-32.3H275.1z" fill="#008043" p-id="1194"></path><path d="M715.3 492.4c-24.7 0-44.7-20-44.7-44.7V310.1c0-86.4-70.3-156.7-156.7-156.7-86.4 0-156.7 70.3-156.7 156.7v137.6c0 24.7-20 44.7-44.7 44.7s-44.7-20-44.7-44.7V310.1C267.7 174.4 378.1 64 513.8 64S760 174.4 760 310.1v137.6c0 24.7-20.1 44.7-44.7 44.7z" fill="#008043" p-id="1195"></path></svg>