<?xml version="1.0" standalone="no"?><!DOCTYPE svg PUBLIC "-//W3C//DTD SVG 1.1//EN" "http://www.w3.org/Graphics/SVG/1.1/DTD/svg11.dtd"><svg class="icon" width="180px" height="171.94px" viewBox="0 0 1072 1024" version="1.1" xmlns="http://www.w3.org/2000/svg"><path d="M980.650667 0H88.502857C39.838476 0 0 34.401524 0 80.749714v859.038476C0 986.136381 39.838476 1024 88.478476 1024H987.91619C1036.580571 1024 1072.761905 986.136381 1072.761905 939.78819V80.65219C1072.761905 34.377143 1029.290667 0 980.650667 0zM312.880762 240.932571c57.58781 0 104.301714 47.128381 104.301714 105.423239 0 58.270476-46.713905 105.398857-104.301714 105.398857-57.660952 0-104.277333-47.201524-104.277333-105.398857-0.097524-58.270476 46.616381-105.423238 104.277333-105.423239zM193.999238 873.423238c-10.386286 0-20.772571-3.31581-29.257143-10.069333-18.870857-15.018667-21.138286-41.179429-4.87619-58.733715l176.249905-237.177904c15.408762-16.554667 41.910857-19.309714 60.903619-6.290286l123.001904 97.718857L780.117333 352.792381c15.506286-17.993143 95.402667-102.570667 143.408762-6.607238 0-0.121905 0.121905 75.50781 0.121905 205.141333 0.121905 135.143619 0.121905 322.072381 0.121905 322.072381-0.975238-0.316952-729.404952 0-729.770667 0z" fill="#DDDDDD" /></svg>