<?xml version="1.0" standalone="no"?><!DOCTYPE svg PUBLIC "-//W3C//DTD SVG 1.1//EN" "http://www.w3.org/Graphics/SVG/1.1/DTD/svg11.dtd"><svg t="1748882062523" class="icon" viewBox="0 0 1024 1024" version="1.1" xmlns="http://www.w3.org/2000/svg" p-id="1355" xmlns:xlink="http://www.w3.org/1999/xlink" width="81" height="81"><path d="M290 927c-26.398 0-55.663-7.696-78.284-20.589C180.301 888.508 163 862.081 163 832c0-1.03 0.051-2.06 0.154-3.085l29.984-299.84c-26.973-17.816-49.567-44.907-66.083-79.482C108.963 411.719 99 365.695 99 320c0-58.745 19.515-114.214 54.95-156.188 17.48-20.706 37.888-37.041 60.657-48.55C238.581 103.145 263.946 97 290 97s51.419 6.145 75.393 18.262c22.769 11.509 43.177 27.844 60.657 48.55C461.485 205.786 481 261.255 481 320c0 47.386-9.457 92.521-27.347 130.523-16.419 34.876-39.23 61.843-66.731 79.151l29.924 299.241c0.102 1.02 0.153 2.043 0.154 3.067 0.018 30.459-17.32 57.024-48.819 74.803C345.753 919.443 316.526 927 290 927zM225.048 833.067C226.53 849.662 262.212 865 290 865c15.84 0 34.566-4.792 47.707-12.209 7.575-4.275 16.545-11.099 17.249-19.687l-31.802-318.02c-1.354-13.537 6.276-26.374 18.813-31.654 28.522-12.013 45.974-38.887 55.591-59.316C411.385 394.744 419 357.769 419 320c0-44.125-14.321-85.39-40.325-116.193C354.282 174.913 322.79 159 290 159s-64.282 15.913-88.675 44.807C175.321 234.61 161 275.875 161 320c0 75.354 32.056 142.727 77.953 163.836 12.022 5.529 19.21 18.081 17.893 31.249L225.048 833.067zM728 927c-26.398 0-55.664-7.696-78.284-20.589C618.301 888.508 601 862.081 601 832c0-1.03 0.052-2.06 0.154-3.085l29.497-294.976c-18.098-9.454-36.194-25.965-51.877-47.921C551.836 448.305 537 400.709 537 352L537 160c0-17.121 13.879-31 31-31s31 13.879 31 31l0 192c0 34.578 10.064 68.413 28.338 95.274 16.173 23.771 32.611 32.946 37.046 33.729 8.618 0.107 16.811 3.797 22.602 10.196 5.877 6.494 8.732 15.171 7.86 23.886l-31.798 317.982C664.529 849.662 700.213 865 728 865c15.84 0 34.566-4.792 47.707-12.209 7.575-4.275 16.545-11.099 17.249-19.687l-31.802-318.02c-0.872-8.715 1.983-17.392 7.86-23.886 5.791-6.399 13.983-10.089 22.602-10.196 4.435-0.783 20.873-9.957 37.046-33.729C846.936 420.413 857 386.578 857 352L857 160c0-17.121 13.879-31 31-31s31 13.879 31 31l0 192c0 48.709-14.836 96.305-41.774 134.019-15.683 21.956-33.779 38.467-51.877 47.921l29.497 294.976c0.103 1.02 0.153 2.043 0.154 3.067 0.018 30.459-17.32 57.024-48.818 74.802C783.753 919.442 754.526 927 728 927zM679.5 383c-17.121 0-31-13.879-31-31L648.5 160c0-17.121 13.879-31 31-31s31 13.879 31 31l0 192C710.5 369.121 696.621 383 679.5 383zM775.5 383c-17.121 0-31-13.879-31-31L744.5 160c0-17.121 13.879-31 31-31s31 13.879 31 31l0 192C806.5 369.121 792.621 383 775.5 383z" fill="#008043" p-id="1356"></path></svg>