<?xml version="1.0" standalone="no"?><!DOCTYPE svg PUBLIC "-//W3C//DTD SVG 1.1//EN" "http://www.w3.org/Graphics/SVG/1.1/DTD/svg11.dtd">
<svg t="1733211114112" class="icon" viewBox="0 0 1024 1024" version="1.1" xmlns="http://www.w3.org/2000/svg" p-id="11978" xmlns:xlink="http://www.w3.org/1999/xlink" width="81" height="81">
  <path fill="#008043" d="M981.333333 768H42.666667v-85.333333a466.432 466.432 0 0 1 137.429333-331.861334 465.066667 465.066667 0 0 1 261.290667-132.266666A84.821333 84.821333 0 0 1 426.666667 170.666667a85.333333 85.333333 0 0 1 85.333333-85.333334 85.333333 85.333333 0 0 1 85.333333 85.333334 85.333333 85.333333 0 0 1-14.677333 47.872 464.554667 464.554667 0 0 1 261.162667 132.266666A466.176 466.176 0 0 1 981.333333 682.666667v85.333333zM469.333333 298.666667a299.008 299.008 0 0 0-298.666666 298.666666 42.666667 42.666667 0 0 0 42.666666 42.666667 42.666667 42.666667 0 0 0 42.666667-42.666667 213.333333 213.333333 0 0 1 213.333333-213.333333 42.666667 42.666667 0 0 0 42.666667-42.666667 42.666667 42.666667 0 0 0-42.666667-42.666666z" p-id="11979"></path>
  <path fill="#008043" opacity=".5" d="M0 853.333333m42.666667 0l938.666666 0q42.666667 0 42.666667 42.666667l0 0q0 42.666667-42.666667 42.666667l-938.666666 0q-42.666667 0-42.666667-42.666667l0 0q0-42.666667 42.666667-42.666667Z" p-id="11980"></path>
</svg>